<svg width="32" height="32" viewBox="0 0 32 32" fill="none" xmlns="http://www.w3.org/2000/svg">
  <!-- Background circle -->
  <circle cx="16" cy="16" r="16" fill="#1e40af"/>
  
  <!-- Letter E -->
  <path d="M9 10H17V12H11V15H16V17H11V20H17V22H9V10Z" fill="white"/>
  
  <!-- Letter G -->
  <path d="M19 14.5C19 12.5 20.5 11 22.5 11C23.3 11 24 11.3 24.5 11.8L23.5 13.2C23.2 12.9 22.9 12.8 22.5 12.8C21.5 12.8 20.8 13.5 20.8 14.5V17.5C20.8 18.5 21.5 19.2 22.5 19.2C22.9 19.2 23.2 19.1 23.5 18.8V17H22V15.5H25V20C24.5 20.7 23.6 21 22.5 21C20.5 21 19 19.5 19 17.5V14.5Z" fill="white"/>
</svg> 